<svg width="480" height="397" viewBox="0 0 480 397" fill="none" xmlns="http://www.w3.org/2000/svg">
<rect width="480" height="397" fill="black"/>
<path d="M241.034 183.442V230.113C241.034 239.503 238.592 246.672 233.709 251.617C228.826 256.563 222.065 259.036 213.425 259.036C208.042 259.036 203.19 258.159 198.87 256.406C194.613 254.716 191.045 252.243 188.165 248.988L191.358 243.635C196.929 249.77 204.285 252.838 213.425 252.838C220.187 252.838 225.32 250.96 228.826 247.204C232.332 243.448 234.085 237.813 234.085 230.301V221.474C229.828 228.924 222.722 232.648 212.768 232.648C204.63 232.648 198.275 230.332 193.705 225.699C189.135 221.004 186.85 214.274 186.85 205.51V183.442H193.799V205.228C193.799 212.177 195.521 217.467 198.964 221.098C202.407 224.666 207.228 226.451 213.425 226.451C219.936 226.451 225.007 224.573 228.638 220.816C232.269 216.998 234.085 211.301 234.085 203.726V183.442H241.034Z" fill="#FFD02B"/>
<path d="M275.26 249.739C268.749 249.739 262.864 248.299 257.605 245.42C252.409 242.54 248.309 238.564 245.304 233.494C242.361 228.36 240.89 222.632 240.89 216.309C240.89 209.986 242.361 204.289 245.304 199.218C248.309 194.085 252.441 190.078 257.699 187.198C262.958 184.319 268.843 182.879 275.353 182.879C280.237 182.879 284.744 183.693 288.876 185.32C293.008 186.948 296.513 189.327 299.393 192.457L294.98 196.871C289.846 191.674 283.367 189.076 275.541 189.076C270.345 189.076 265.619 190.266 261.362 192.645C257.105 195.024 253.755 198.279 251.314 202.411C248.935 206.543 247.745 211.175 247.745 216.309C247.745 221.442 248.935 226.075 251.314 230.207C253.755 234.339 257.105 237.594 261.362 239.973C265.619 242.352 270.345 243.541 275.541 243.541C283.429 243.541 289.909 240.912 294.98 235.653L299.393 240.067C296.513 243.197 292.976 245.607 288.782 247.298C284.65 248.925 280.143 249.739 275.26 249.739Z" fill="#767676"/>
<path d="M259.073 168.939C259.603 169.434 260.301 169.709 261.026 169.709V169.709C263.621 169.709 264.874 166.53 262.977 164.76L242.923 146.042C241.467 144.684 239.209 144.684 237.753 146.042L217.698 164.76C215.801 166.53 217.054 169.709 219.649 169.709V169.709C220.375 169.709 221.072 169.434 221.602 168.939L237.751 153.843C239.207 152.482 241.469 152.482 242.925 153.843L259.073 168.939ZM226.366 148.874V147.418C226.366 145.326 224.67 143.63 222.578 143.63H221.772C219.68 143.63 217.984 145.326 217.984 147.418V156.669L226.366 148.874Z" fill="white"/>
<path d="M219.846 167.847L219.846 171.572" stroke="white" stroke-width="5.68221" stroke-linecap="round"/>
<path d="M260.829 167.847L260.829 171.572" stroke="white" stroke-width="5.68221" stroke-linecap="round"/>
</svg>
